<?xml version="1.0" encoding="utf-8"?>
<!-- Generator: Adobe Illustrator 25.0.1, SVG Export Plug-In . SVG Version: 6.00 Build 0)  -->
<svg version="1.1" id="Livello_1" xmlns="http://www.w3.org/2000/svg" xmlns:xlink="http://www.w3.org/1999/xlink" x="0px" y="0px"
	 viewBox="0 0 512 478.64" style="enable-background:new 0 0 512 478.64;" xml:space="preserve">
<style type="text/css">
	.st0{fill:#9A1C30;}
	.st1{fill:#D8273A;}
	.st2{fill:url(#SVGID_1_);}
	.st3{fill:url(#SVGID_2_);}
	.st4{fill:url(#SVGID_3_);}
	.st5{fill:url(#SVGID_4_);}
</style>
<g>
	<g>
		<path class="st0" d="M343.49,220.29L256.17,70.72l0.5,185.44l39.14,66.7c0,0,6.02,5.05,12.04,5.05c6.02,0,12.04-3.03,12.04-3.03
			s75.28-43.46,90.33-52.55c15.06-9.1,16.06-20.21,16.06-20.21l0.1-6.38l0.07-25.42L343.49,220.29z"/>
		<path class="st0" d="M85.54,220.29l0.5,31.83c0,0,1,11.12,16.06,20.21c15.06,9.1,90.33,52.55,90.33,52.55s6.02,3.03,12.04,3.03
			s12.04-5.05,12.04-5.05l39.14-66.7l0.5-185.44l-87.32,149.57H85.54z"/>
		<path class="st1" d="M343.49,220.29V107.11l-87.32,149.57l-87.32-149.57v113.19H85.54l1-144.51c0,0-1-7.07,8.03-15.16
			c5.84-5.22,13.44-9,20.1-13c11.85-7.12,23.83-14.03,35.82-20.91c11.01-6.31,22.05-12.57,33.1-18.79c3.4-1.91,6.8-3.81,10.19-5.74
			c6.55-3.73,16.82-2.6,22.24,2.86c7.03,7.07,40.15,65.69,40.15,65.69s33.12-58.61,40.15-65.69c5.01-5.04,15.61-6.45,21.84-3.12
			c1.07,0.57,2.1,1.24,3.16,1.83c2.4,1.35,4.8,2.7,7.2,4.05c10.97,6.18,21.93,12.39,32.86,18.65c11.98,6.86,23.94,13.77,35.78,20.87
			c6.82,4.09,14.63,7.95,20.61,13.3c9.03,8.08,8.03,15.16,8.03,15.16l0.67,144.55"/>
		<linearGradient id="SVGID_1_" gradientUnits="userSpaceOnUse" x1="238.9362" y1="195.1559" x2="201.1879" y2="252.4086">
			<stop  offset="0" style="stop-color:#591223"/>
			<stop  offset="1" style="stop-color:#9A1C30"/>
		</linearGradient>
		<polygon class="st2" points="256.17,256.67 188.35,186.88 201.89,163.7 		"/>
		
			<linearGradient id="SVGID_2_" gradientUnits="userSpaceOnUse" x1="3237.9346" y1="195.1559" x2="3200.1863" y2="252.4086" gradientTransform="matrix(-1 0 0 1 3511.4331 0)">
			<stop  offset="0" style="stop-color:#591223"/>
			<stop  offset="1" style="stop-color:#9A1C30"/>
		</linearGradient>
		<polygon class="st3" points="256.27,256.67 324.08,186.88 310.55,163.7 		"/>
		<linearGradient id="SVGID_3_" gradientUnits="userSpaceOnUse" x1="117.2975" y1="196.8783" x2="159.6353" y2="314.884">
			<stop  offset="0.1235" style="stop-color:#D8273A"/>
			<stop  offset="0.1937" style="stop-color:#C52437"/>
			<stop  offset="0.3218" style="stop-color:#9A1C30"/>
		</linearGradient>
		<polygon class="st4" points="85.56,199.23 85.57,248.85 168.51,227.72 168.51,199.23 		"/>
		
			<linearGradient id="SVGID_4_" gradientUnits="userSpaceOnUse" x1="1623.9009" y1="196.9187" x2="1666.2386" y2="314.9245" gradientTransform="matrix(-1 0 0 1 2018.5731 0)">
			<stop  offset="0.1235" style="stop-color:#D8273A"/>
			<stop  offset="0.1937" style="stop-color:#C52437"/>
			<stop  offset="0.3218" style="stop-color:#9A1C30"/>
		</linearGradient>
		<polygon class="st5" points="426.3,199.23 426.29,248.85 343.35,227.72 343.66,199.06 		"/>
	</g>
	<g>
		<path class="st1" d="M48.1,432.25c-1.19-7.91-6.46-13.31-13.44-13.31c-6.06,0-12.39,4.22-15.29,9.62l3.03,19.77H6.06L0,405.5
			h16.34l1.58,9.09c3.43-4.88,11.47-10.81,21.22-10.81c10.15,0,16.21,5.01,19.77,10.55c3.82-4.75,10.54-10.55,21.88-10.55
			c15.42,0,24.51,9.89,27.02,27.81l2.37,16.74H94.1l-2.24-15.68c-1.19-8.3-7.25-14.1-14.37-14.1c-6.33,0-11.47,4.09-13.97,9.23
			l7.12,49.03H54.3L48.1,432.25z"/>
		<path class="st1" d="M122.43,441.61c-3.03-21.61,10.67-37.82,31.1-37.82c10.81,0,18.71,6.33,21.48,10.28l-1.19-8.57h15.81
			l7.12,49.55c0.92,5.93,2.77,9.62,6.59,9.62c1.19,0,2.24-0.27,2.64-1.06l5.01,8.04c-1.58,3.56-6.06,6.72-13.44,6.72
			c-4.74,0-12.52-2.37-15.16-9.62l-5.67-40.06c-3.3-5.67-10.68-11.86-20.82-11.86c-11.86,0-19.64,9.36-17.66,23.19
			c1.84,12.79,11.47,23.59,22.8,25.04l1.05,13.31C142.33,477.85,125.2,461.64,122.43,441.61z"/>
		<path class="st1" d="M212.44,405.5h16.34l1.71,10.15c2.9-4.88,10.28-11.87,21.48-11.87c16.21,0,25.3,8.7,28.07,28.21l6.2,44.81
			h-16.21l-6.06-43.76c-1.18-8.04-7.77-13.57-14.89-13.57c-7.77,0-13.44,4.88-16.87,11.86l2.64,17h-16.34L212.44,405.5z"/>
		<path class="st1" d="M308.78,408.79l4.88,37.3c2.11,11.73,13.97,18.45,25.96,18.45c10.02,0,19.11-2.11,23.85-6.32l5.01,12.39
			c-5.27,4.61-15.95,8.04-29.65,8.04c-23.06,0-39.8-13.97-42.83-35.84C293.89,428.16,298.5,415.38,308.78,408.79z M365.06,436.6
			c0.4,3.56,0.26,7.78-0.13,9.62l-27.55,0.39l-1.71-12.39l13.44,0.52c-1.18-8.96-7.77-15.42-16.21-17.13l-1.05-13.57
			C351.75,406.16,362.82,420.79,365.06,436.6z"/>
		<path class="st1" d="M373.75,405.5h16.34l1.71,10.15c2.9-4.88,10.28-11.87,21.48-11.87c16.21,0,25.3,8.7,28.07,28.21l6.2,44.81
			h-16.21l-6.06-43.76c-1.18-8.04-7.77-13.57-14.89-13.57c-7.78,0-13.44,4.88-16.87,11.86l2.64,17h-16.35L373.75,405.5z"/>
		<path class="st1" d="M452.04,405.5h11.2l-2.9-20.82l16.21-0.92l3.03,21.74h18.18l1.98,13.71h-45.74L452.04,405.5z M469.96,453.47
			l-0.66-5.14h16.35l0.52,4.09c1.06,7.12,5.93,11.34,11.6,11.34c4.09,0,6.98-1.06,8.96-3.3l5.27,11.99
			c-2.77,3.3-8.3,6.19-16.21,6.19C481.69,478.64,472.59,471.39,469.96,453.47z"/>
	</g>
</g>
</svg>
